<?xml version="1.0" encoding="UTF-8"?>
<!DOCTYPE svg PUBLIC "-//W3C//DTD SVG 1.1//EN" "http://www.w3.org/Graphics/SVG/1.1/DTD/svg11.dtd">
<!-- Creator: CorelDRAW 2019 (64-Bit) -->
<svg xmlns="http://www.w3.org/2000/svg" xml:space="preserve" width="28px" height="28px" version="1.1" style="shape-rendering:geometricPrecision; text-rendering:geometricPrecision; image-rendering:optimizeQuality; fill-rule:evenodd; clip-rule:evenodd"
viewBox="0 0 1.87 1.87"
 xmlns:xlink="http://www.w3.org/1999/xlink">
 <defs>
  <style type="text/css">
   <![CDATA[
    .str0 {stroke:#2B2A29;stroke-width:0.13;stroke-miterlimit:22.9256}
    .str1 {stroke:#2B2A29;stroke-width:0.13;stroke-linecap:square;stroke-miterlimit:22.9256}
    .fil0 {fill:none}
   ]]>
  </style>
 </defs>
 <g id="Слой_x0020_1">
  <metadata id="CorelCorpID_0Corel-Layer"/>
  <circle class="fil0 str0" cx="0.93" cy="0.93" r="0.87"/>
  <line class="fil0 str0" x1="0.74" y1="0.32" x2="0.74" y2= "0.53" />
  <line class="fil0 str0" x1="0.7" y1="0.53" x2="0.7" y2= "1.33" />
  <path class="fil0 str1" d="M0.61 0.53l0.41 0c0.1,0 0.19,0.09 0.19,0.2 0,0.11 -0.09,0.2 -0.19,0.2l-0.32 0"/>
  <line class="fil0 str0" x1="0.94" y1="0.32" x2="0.94" y2= "0.53" />
  <path class="fil0 str1" d="M0.61 1.33l0.54 0c0.11,0 0.19,-0.08 0.19,-0.2 0,-0.11 -0.08,-0.2 -0.19,-0.2l-0.45 0"/>
  <line class="fil0 str0" x1="0.74" y1="1.33" x2="0.74" y2= "1.54" />
  <line class="fil0 str0" x1="0.94" y1="1.33" x2="0.94" y2= "1.54" />
 </g>
</svg>
