<?xml version="1.0" encoding="UTF-8"?>
<!DOCTYPE svg PUBLIC "-//W3C//DTD SVG 1.1//EN" "http://www.w3.org/Graphics/SVG/1.1/DTD/svg11.dtd">
<!-- Creator: CorelDRAW 2019 (64-Bit) -->
<svg xmlns="http://www.w3.org/2000/svg" xml:space="preserve" width="79px" height="51px" version="1.1" style="shape-rendering:geometricPrecision; text-rendering:geometricPrecision; image-rendering:optimizeQuality; fill-rule:evenodd; clip-rule:evenodd"
viewBox="0 0 2.93 1.89"
 xmlns:xlink="http://www.w3.org/1999/xlink">
 <defs>
  <style type="text/css">
   <![CDATA[
    .str0 {stroke:#2B2A29;stroke-width:0.15;stroke-miterlimit:22.9256}
    .str1 {stroke:#2B2A29;stroke-width:0.07;stroke-miterlimit:22.9256}
    .str2 {stroke:#2B2A29;stroke-width:0.11;stroke-miterlimit:22.9256}
    .fil0 {fill:none}
   ]]>
  </style>
 </defs>
 <g id="Слой_x0020_1">
  <metadata id="CorelCorpID_0Corel-Layer"/>
  <polygon class="fil0 str0" points="2.3,0.63 2.3,1.82 0.07,1.82 0.07,0.63 "/>
  <polyline class="fil0 str1" points="0.3,0.41 2.53,0.41 2.53,1.52 "/>
  <polyline class="fil0 str1" points="0.48,0.22 2.71,0.22 2.71,1.34 "/>
  <polyline class="fil0 str1" points="0.67,0.04 2.9,0.04 2.9,1.15 "/>
  <g id="_2529166579488">
   <path class="fil0 str2" d="M1.01 1.35l0 0.1 0.25 0c0.07,0 0.13,-0.05 0.13,-0.11 0,-0.06 -0.06,-0.11 -0.13,-0.11l-0.14 0c-0.08,0 -0.14,-0.05 -0.14,-0.12 0,-0.06 0.06,-0.11 0.14,-0.11l0.25 0 0 0.1"/>
   <line class="fil0 str2" x1="1.2" y1="1" x2="1.2" y2= "0.82" />
   <line class="fil0 str2" x1="1.2" y1="1.63" x2="1.2" y2= "1.45" />
  </g>
 </g>
</svg>
