<?xml version="1.0" encoding="UTF-8"?>
<!DOCTYPE svg PUBLIC "-//W3C//DTD SVG 1.1//EN" "http://www.w3.org/Graphics/SVG/1.1/DTD/svg11.dtd">
<!-- Creator: CorelDRAW 2019 (64-Bit) -->
<svg xmlns="http://www.w3.org/2000/svg" xml:space="preserve" width="24px" height="24px" version="1.1" style="shape-rendering:geometricPrecision; text-rendering:geometricPrecision; image-rendering:optimizeQuality; fill-rule:evenodd; clip-rule:evenodd"
viewBox="0 0 0.6 0.6"
 xmlns:xlink="http://www.w3.org/1999/xlink">
 <defs>
  <style type="text/css">
   <![CDATA[
    .str0 {stroke:#2B2A29;stroke-width:0.05;stroke-miterlimit:22.9256}
    .fil0 {fill:none}
   ]]>
  </style>
 </defs>
 <g id="Слой_x0020_1">
  <metadata id="CorelCorpID_0Corel-Layer"/>
  <path class="fil0 str0" d="M0.07 0.02l0.45 0c0.03,0 0.05,0.03 0.05,0.05l0 0.45c0,0.03 -0.02,0.05 -0.05,0.05l-0.45 0c-0.02,0 -0.05,-0.02 -0.05,-0.05l0 -0.45c0,-0.02 0.03,-0.05 0.05,-0.05z"/>
  <path class="fil0 str0" d="M0.2 0.17l-0.05 0m0.3 0l-0.2 0m0.2 0.25l-0.2 0m0.2 -0.12l-0.2 0m-0.05 0.12l-0.05 0m0.05 -0.12l-0.05 0"/>
 </g>
</svg>
