<?xml version="1.0" encoding="UTF-8"?>
<!DOCTYPE svg PUBLIC "-//W3C//DTD SVG 1.1//EN" "http://www.w3.org/Graphics/SVG/1.1/DTD/svg11.dtd">
<!-- Creator: CorelDRAW 2019 (64-Bit) -->
<svg xmlns="http://www.w3.org/2000/svg" xml:space="preserve" width="1068px" height="223px" version="1.1" style="shape-rendering:geometricPrecision; text-rendering:geometricPrecision; image-rendering:optimizeQuality; fill-rule:evenodd; clip-rule:evenodd"
viewBox="0 0 1066.57 222.95"
 xmlns:xlink="http://www.w3.org/1999/xlink">
 <defs>
  <style type="text/css">
   <![CDATA[
    .fil0 {fill:#002850}
    .fil4 {fill:#508CFA;fill-rule:nonzero}
    .fil1 {fill:#64E664;fill-rule:nonzero}
    .fil3 {fill:#FA0064;fill-rule:nonzero}
    .fil2 {fill:#FFBE00;fill-rule:nonzero}
   ]]>
  </style>
 </defs>
 <g id="Слой_x0020_1">
  <metadata id="CorelCorpID_0Corel-Layer"/>
  <g id="_2793980028016">
   <path class="fil0" d="M1026.34 66.24c-23.19,0 -30.62,5.45 -36.62,13.6l-1.19 0 0.03 0.06c-5.42,-7.77 -14.84,-13.66 -31.39,-13.66 -16.6,0 -24.87,5.45 -30.84,13.6l-1.1 0 0 -12.86 -25.03 0 0 91.97 25.03 0 0 -44.69c0,-12.55 1.43,-26.41 23.13,-26.41 22.8,0 22.49,17.55 22.49,24.76l0 46.34 25.01 0 0 -45.1 0.08 0.41c0,-12.55 1.43,-26.41 23.13,-26.41 22.8,0 22.53,17.55 22.53,24.76l0 46.34 24.97 0 0 -46.34c0,-13.52 -1.05,-46.37 -40.23,-46.37l0 0z"/>
   <path class="fil0" d="M835.86 137.35c-23.89,0 -26.56,-18.08 -26.56,-24.74 0,-7.21 2.53,-24.74 26.58,-24.74 21.72,0 26.15,12.19 26.15,24.74 0,14.01 -4.43,24.74 -26.17,24.74l0 0zm26.69 -57.49c-6.3,-8.2 -16.79,-13.62 -33.9,-13.62 -39.22,0 -43.35,32.86 -43.35,46.37 0,12.47 4.38,46.34 43.26,46.34 17.39,0 27.99,-4.87 34.26,-12.93l0.78 0 0 12.93 25.15 0 0 -91.97 -25.15 0 0 12.88 -1.05 0z"/>
   <path class="fil0" d="M727.02 88.02c17.72,0 22.21,7.5 24.26,14.37l-48.44 0c2.86,-9.3 10.44,-14.37 24.18,-14.37l0 0zm48.06 30.8l0.92 0c1.42,-12.56 -0.16,-32 -17.91,-43.94 0,0 0,0 0,0.03 -7.74,-5.4 -18.07,-8.67 -31.07,-8.67 -31,0 -49.32,16.38 -49.32,46.37 0,30.53 17.88,46.34 49.32,46.34 30.15,0 46.09,-12.24 48.63,-31.92l-24.1 0c-2.29,6.02 -9.65,10.14 -24.53,10.14 -16.09,0 -23.42,-6.08 -25.14,-18.35l73.2 0 0 0z"/>
   <path class="fil0" d="M639 87.95l29.8 0 0 -20.97 -29.8 0 0 -26.07 -24.92 0 0 84.24c0,13.33 0,33.8 24.92,33.8 24.89,0 29.8,-1.69 29.8,-1.69l0 -24.29c-23.8,1.28 -29.8,3.22 -29.8,-10.14l0 -1.83 0 0 0 -33.05z"/>
   <path class="fil0" d="M554.52 88.02c17.72,0 22.22,7.5 24.27,14.37l-48.45 0c2.87,-9.3 10.44,-14.37 24.18,-14.37l0 0zm48.07 30.8l0.92 0c1.42,-12.56 -0.16,-32 -17.91,-43.94 0,0 0,0 0,0.03 -7.74,-5.4 -18.07,-8.67 -31.08,-8.67 -30.99,0 -49.31,16.38 -49.31,46.37 0,30.53 17.88,46.34 49.31,46.34 30.15,0 46.1,-12.24 48.64,-31.92l-24.1 0c-2.29,6.02 -9.65,10.14 -24.54,10.14 -16.08,0 -23.41,-6.08 -25.13,-18.35l73.2 0 0 0z"/>
   <path class="fil0" d="M454.77 66.24c-16.57,0 -25.03,5.45 -31.03,13.6l-1.18 0 0 -12.86 -25.14 0 0 91.97 25.14 0 0 -44.69c0,-12.55 3.28,-26.41 24.97,-26.41 24.07,0 22.5,17.55 22.5,24.76l0 46.34 25 0 0 -46.34c0,-13.52 -1.04,-46.37 -40.26,-46.37l0 0z"/>
   <path class="fil0" d="M336.07 136.22c-15.62,0 -26.72,-6.82 -26.72,-24.02 0,-17.2 11.1,-24.04 26.72,-24.04 15.59,0 26.69,7.11 26.69,24.04 0,16.66 -11.1,24.02 -26.69,24.02l0 0zm0 -70.77c-27.83,0 -51.19,15.18 -51.19,46.75 0,31.73 23.36,46.75 51.19,46.75 27.81,0 51.17,-14.55 51.17,-46.75 0,-31.79 -23.36,-46.75 -51.17,-46.75z"/>
  </g>
  <path class="fil1" d="M78.56 68.56c19.18,10.42 12.45,71.85 -1.05,86.31 -23.65,25.33 -74.58,4.6 -77.36,-29.68 -3.84,-47.32 66.23,-63.25 78.41,-56.63z"/>
  <path class="fil2" d="M176.71 193.3c-4.35,-15.65 -121.84,-19.73 -124.22,0.77 -5.03,43.41 133.75,33.51 124.22,-0.77z"/>
  <path class="fil3" d="M33.76 45.21c28.04,13.13 92.8,-21.65 93.16,-33.68 1.05,-35.36 -120.84,20.7 -93.16,33.68z"/>
  <path class="fil4" d="M142.37 44.92c-9.2,38.68 -7.52,91.15 5.23,108.35 31.24,42.13 94.8,-9.35 74.96,-72.1 -17.65,-55.82 -70.51,-76.93 -80.19,-36.25z"/>
 </g>
</svg>
