<?xml version="1.0" encoding="UTF-8"?>
<!DOCTYPE svg PUBLIC "-//W3C//DTD SVG 1.1//EN" "http://www.w3.org/Graphics/SVG/1.1/DTD/svg11.dtd">
<!-- Creator: CorelDRAW 2019 (64-Bit) -->
<svg xmlns="http://www.w3.org/2000/svg" xml:space="preserve" width="63px" height="55px" version="1.1" style="shape-rendering:geometricPrecision; text-rendering:geometricPrecision; image-rendering:optimizeQuality; fill-rule:evenodd; clip-rule:evenodd"
viewBox="0 0 9.67 8.42"
 xmlns:xlink="http://www.w3.org/1999/xlink">
 <defs>
  <style type="text/css">
   <![CDATA[
    .str1 {stroke:#2B2A29;stroke-width:0.61;stroke-miterlimit:22.9256}
    .str2 {stroke:#2B2A29;stroke-width:0.61;stroke-miterlimit:22.9256}
    .str0 {stroke:#2B2A29;stroke-width:0.31;stroke-miterlimit:22.9256}
    .fil0 {fill:none}
   ]]>
  </style>
 </defs>
 <g id="Слой_x0020_1">
  <metadata id="CorelCorpID_0Corel-Layer"/>
  <polyline class="fil0 str0" points="5.55,0.15 9.52,0.15 9.52,5.96 "/>
  <polyline class="fil0 str1" points="4.63,3.82 4.63,1.07 8.6,1.07 8.6,6.58 5.26,6.58 "/>
  <line class="fil0 str0" x1="7.53" y1="5.05" x2="5.7" y2= "5.05" />
  <path class="fil0 str2" d="M0.31 8.4c0,-0.35 0.02,-0.75 0.12,-0.94 0.13,-0.24 0.49,-0.45 0.74,-0.55 0.11,-0.04 0.29,-0.1 0.31,-0.2 0.04,-0.13 -0.05,-0.24 -0.13,-0.35 -0.15,-0.19 -0.25,-0.43 -0.27,-0.67 -0.04,-0.52 0.23,-0.95 0.78,-0.95 0.46,0 0.77,0.29 0.8,0.75 0.02,0.32 -0.07,0.62 -0.28,0.9 -0.06,0.09 -0.14,0.16 -0.13,0.27 0.02,0.11 0.13,0.16 0.22,0.19 0.18,0.07 0.48,0.22 0.68,0.39"/>
  <path class="fil0 str2" d="M6.81 8.41c-0.01,-0.19 0,-0.39 -0.04,-0.51 -0.13,-0.39 -0.73,-0.68 -1.11,-0.82 -0.17,-0.06 -0.43,-0.16 -0.46,-0.3 -0.06,-0.2 0.07,-0.36 0.2,-0.53 0.21,-0.28 0.36,-0.65 0.39,-1 0.06,-0.78 -0.33,-1.43 -1.16,-1.43 -0.69,0 -1.16,0.43 -1.2,1.12 -0.03,0.49 0.1,0.93 0.41,1.36 0.09,0.13 0.21,0.23 0.2,0.4 -0.02,0.17 -0.19,0.24 -0.33,0.29 -0.39,0.16 -1.17,0.55 -1.28,0.94 -0.02,0.08 -0.03,0.32 -0.03,0.48"/>
  <circle class="fil0 str0" cx="6.61" cy="2.91" r="0.76"/>
 </g>
</svg>
