<?xml version="1.0" encoding="UTF-8"?>
<!DOCTYPE svg PUBLIC "-//W3C//DTD SVG 1.1//EN" "http://www.w3.org/Graphics/SVG/1.1/DTD/svg11.dtd">
<!-- Creator: CorelDRAW 2019 (64-Bit) -->
<svg xmlns="http://www.w3.org/2000/svg" xml:space="preserve" width="34px" height="26px" version="1.1" style="shape-rendering:geometricPrecision; text-rendering:geometricPrecision; image-rendering:optimizeQuality; fill-rule:evenodd; clip-rule:evenodd"
viewBox="0 0 4.88 3.79"
 xmlns:xlink="http://www.w3.org/1999/xlink">
 <defs>
  <style type="text/css">
   <![CDATA[
    .str0 {stroke:#2B2A29;stroke-width:0.29;stroke-miterlimit:22.9256}
    .fil0 {fill:none}
   ]]>
  </style>
 </defs>
 <g id="Слой_x0020_1">
  <metadata id="CorelCorpID_0Corel-Layer"/>
  <polygon class="fil0 str0" points="2.18,0.57 2.18,2.76 0.73,2.76 0.73,0.57 "/>
  <path class="fil0 str0" d="M0 3.64c0.28,0 0.33,-0.29 0.61,-0.29 0.28,0 0.33,0.29 0.61,0.29 0.28,0 0.33,-0.29 0.61,-0.29 0.28,0 0.33,0.29 0.61,0.29 0.28,0 0.33,-0.29 0.61,-0.29 0.28,0 0.33,0.29 0.61,0.29 0.28,0 0.33,-0.29 0.61,-0.29 0.28,0 0.33,0.29 0.61,0.29"/>
  <line class="fil0 str0" x1="4.88" y1="2.76" x2="0" y2= "2.76" />
  <polygon class="fil0 str0" points="3.06,1.59 3.06,2.76 2.18,2.76 2.18,1.59 "/>
  <line class="fil0 str0" x1="4" y1="1.31" x2="4" y2= "2.76" />
  <circle class="fil0 str0" cx="4" cy="0.73" r="0.58"/>
  <line class="fil0 str0" x1="1.67" y1="1.17" x2="1.24" y2= "1.17" />
  <line class="fil0 str0" x1="1.67" y1="1.75" x2="1.24" y2= "1.75" />
 </g>
</svg>
