<?xml version="1.0" encoding="UTF-8"?>
<!DOCTYPE svg PUBLIC "-//W3C//DTD SVG 1.1//EN" "http://www.w3.org/Graphics/SVG/1.1/DTD/svg11.dtd">
<!-- Creator: CorelDRAW 2019 (64-Bit) -->
<svg xmlns="http://www.w3.org/2000/svg" xml:space="preserve" width="71px" height="57px" version="1.1" style="shape-rendering:geometricPrecision; text-rendering:geometricPrecision; image-rendering:optimizeQuality; fill-rule:evenodd; clip-rule:evenodd"
viewBox="0 0 6.36 5.1"
 xmlns:xlink="http://www.w3.org/1999/xlink">
 <defs>
  <style type="text/css">
   <![CDATA[
    .str0 {stroke:#2B2A29;stroke-width:0.36;stroke-miterlimit:22.9256}
    .str1 {stroke:#2B2A29;stroke-width:0.18;stroke-miterlimit:22.9256}
    .fil0 {fill:none}
   ]]>
  </style>
 </defs>
 <g id="Слой_x0020_1">
  <metadata id="CorelCorpID_0Corel-Layer"/>
  <polygon class="fil0 str0" points="2.51,0.71 2.51,3.39 0.72,3.39 0.72,0.71 "/>
  <path class="fil0 str1" d="M0 5.02c0.37,0 0.43,-0.38 0.79,-0.38 0.37,0 0.43,0.38 0.8,0.38 0.36,0 0.43,-0.38 0.79,-0.38 0.37,0 0.43,0.38 0.8,0.38 0.36,0 0.43,-0.38 0.79,-0.38 0.37,0 0.43,0.38 0.8,0.38 0.36,0 0.43,-0.38 0.79,-0.38 0.37,0 0.43,0.38 0.8,0.38"/>
  <path class="fil0 str1" d="M0 4.3c0.37,0 0.43,-0.38 0.79,-0.38 0.37,0 0.43,0.38 0.8,0.38 0.36,0 0.43,-0.38 0.79,-0.38 0.37,0 0.43,0.38 0.8,0.38 0.36,0 0.43,-0.38 0.79,-0.38 0.37,0 0.43,0.38 0.8,0.38 0.36,0 0.43,-0.38 0.79,-0.38 0.37,0 0.43,0.38 0.8,0.38"/>
  <line class="fil0 str0" x1="6.36" y1="3.39" x2="0" y2= "3.39" />
  <polygon class="fil0 str0" points="3.94,1.96 3.94,3.39 2.51,3.39 2.51,1.96 "/>
  <line class="fil0 str1" x1="5.28" y1="1.61" x2="5.28" y2= "3.39" />
  <circle class="fil0 str0" cx="5.28" cy="0.9" r="0.72"/>
  <line class="fil0 str1" x1="1.88" y1="1.43" x2="1.34" y2= "1.43" />
  <line class="fil0 str1" x1="1.88" y1="2.15" x2="1.34" y2= "2.15" />
 </g>
</svg>
