<?xml version="1.0" encoding="UTF-8"?>
<!DOCTYPE svg PUBLIC "-//W3C//DTD SVG 1.1//EN" "http://www.w3.org/Graphics/SVG/1.1/DTD/svg11.dtd">
<!-- Creator: CorelDRAW 2019 (64-Bit) -->
<svg xmlns="http://www.w3.org/2000/svg" xml:space="preserve" width="79px" height="59px" version="1.1" style="shape-rendering:geometricPrecision; text-rendering:geometricPrecision; image-rendering:optimizeQuality; fill-rule:evenodd; clip-rule:evenodd"
viewBox="0 0 4.79 3.61"
 xmlns:xlink="http://www.w3.org/1999/xlink">
 <defs>
  <style type="text/css">
   <![CDATA[
    .str1 {stroke:#2B2A29;stroke-width:0.24;stroke-miterlimit:22.9256}
    .str2 {stroke:#2B2A29;stroke-width:0.12;stroke-miterlimit:22.9256}
    .str0 {stroke:#2B2A29;stroke-width:0.18;stroke-miterlimit:22.9256}
    .fil0 {fill:none}
   ]]>
  </style>
 </defs>
 <g id="Слой_x0020_1">
  <metadata id="CorelCorpID_0Corel-Layer"/>
  <g id="_1267802140304">
   <path class="fil0 str0" d="M1.7 2.21l0 0.16 0.41 0c0.12,0 0.22,-0.08 0.22,-0.18 0,-0.1 -0.1,-0.19 -0.22,-0.19l-0.24 0c-0.11,0 -0.21,-0.08 -0.21,-0.18 0,-0.1 0.1,-0.18 0.21,-0.18l0.42 0 0 0.16"/>
   <line class="fil0 str0" x1="2.02" y1="1.64" x2="2.02" y2= "1.34" />
   <line class="fil0 str0" x1="2.02" y1="2.67" x2="2.02" y2= "2.37" />
  </g>
  <line class="fil0 str1" x1="0.17" y1="1.03" x2="3.82" y2= "1.03" />
  <polyline class="fil0 str1" points="0.72,0.49 0.17,1.03 0.72,1.58 "/>
  <line class="fil0 str1" x1="3.82" y1="2.98" x2="0.17" y2= "2.98" />
  <polyline class="fil0 str1" points="3.27,3.52 3.82,2.98 3.27,2.43 "/>
  <polyline class="fil0 str2" points="0.96,0.67 4.12,0.67 4.12,2.49 "/>
  <polyline class="fil0 str2" points="0.9,0.36 4.42,0.36 4.42,2.19 "/>
  <polyline class="fil0 str2" points="1.08,0.06 4.73,0.06 4.73,1.88 "/>
 </g>
</svg>
